HIERARCHY
ROOT Hips
{
	OFFSET 0.00 0.00 0.00
	CHANNELS 6 Xposition Yposition Zposition Xrotation Yrotation Zrotation
	JOINT LeftUpLeg
	{
		OFFSET 2.83210 0.00000 0.00000
		CHANNELS 3 Xrotation Yrotation Zrotation
		JOINT LeftLeg
		{
			OFFSET 0.00000 -16.27150 0.00000
			CHANNELS 3 Xrotation Yrotation Zrotation
			JOINT LeftFoot
			{
				OFFSET 0.00000 -14.95190 0.00000
				CHANNELS 3 Xrotation Yrotation Zrotation
				JOINT LeftToeBase
				{
					OFFSET 0.00000 -1.07991 4.03030
					CHANNELS 3 Xrotation Yrotation Zrotation
					End Site
					{
						OFFSET 0.00000 0.00000 2.95275
					}
				}
			}
		}
	}
	JOINT RightUpLeg
	{
		OFFSET -2.83210 0.00000 0.00000
		CHANNELS 3 Xrotation Yrotation Zrotation
		JOINT RightLeg
		{
			OFFSET 0.00000 -16.27150 0.00000
			CHANNELS 3 Xrotation Yrotation Zrotation
			JOINT RightFoot
			{
				OFFSET 0.00000 -14.95190 0.00000
				CHANNELS 3 Xrotation Yrotation Zrotation
				JOINT RightToeBase
				{
					OFFSET 0.00000 -1.07991 4.03030
					CHANNELS 3 Xrotation Yrotation Zrotation
					End Site
					{
						OFFSET 0.00000 0.00000 2.95275
					}
				}
			}
		}
	}
	JOINT Spine
	{
		OFFSET 0.00000 0.03937 0.00000
		CHANNELS 3 Xrotation Yrotation Zrotation
		JOINT Spine1
		{
			OFFSET 0.00000 8.01054 0.00000
			CHANNELS 3 Xrotation Yrotation Zrotation
			JOINT Neck
			{
				OFFSET 0.00000 8.21888 0.00000
				CHANNELS 3 Xrotation Yrotation Zrotation
				JOINT Head
				{
					OFFSET 0.00000 3.25664 0.00000
					CHANNELS 3 Xrotation Yrotation Zrotation
					End Site
					{
						OFFSET 0.00000 4.52755 0.00000
					}
				}
			}
			JOINT LeftShoulder
			{
				OFFSET 0.00000 8.21888 0.00000
				CHANNELS 3 Xrotation Yrotation Zrotation
				JOINT LeftArm
				{
					OFFSET 6.52904 -0.00002 0.00000
					CHANNELS 3 Xrotation Yrotation Zrotation
					JOINT LeftForeArm
					{
						OFFSET 10.44840 -0.00004 0.00000
						CHANNELS 3 Xrotation Yrotation Zrotation
						JOINT LeftHand
						{
							OFFSET 8.94727 -0.00003 0.00000
							CHANNELS 3 Xrotation Yrotation Zrotation
							JOINT LeftHandThumb
							{
								OFFSET 0.00000 0.00000 0.00000
								CHANNELS 3 Xrotation Yrotation Zrotation
								End Site
								{
									OFFSET 0.00000 0.00000 3.93700
								}
							}
							JOINT L_Wrist_End
							{
								OFFSET 3.93700 -0.00001 0.00000
								CHANNELS 3 Xrotation Yrotation Zrotation
							}
						}
					}
				}
			}
			JOINT RightShoulder
			{
				OFFSET 0.00000 8.21888 0.00000
				CHANNELS 3 Xrotation Yrotation Zrotation
				JOINT RightArm
				{
					OFFSET -6.52904 -0.00002 0.00000
					CHANNELS 3 Xrotation Yrotation Zrotation
					JOINT RightForeArm
					{
						OFFSET -10.44840 -0.00004 0.00000
						CHANNELS 3 Xrotation Yrotation Zrotation
						JOINT RightHand
						{
							OFFSET -8.94727 -0.00003 0.00000
							CHANNELS 3 Xrotation Yrotation Zrotation
							JOINT RightHandThumb
							{
								OFFSET 0.00000 0.00000 0.00000
								CHANNELS 3 Xrotation Yrotation Zrotation
								End Site
								{
									OFFSET 0.00000 0.00000 3.93700
								}
							}
							JOINT R_Wrist_End
							{
								OFFSET -5.39369 -0.00002 0.00000
								CHANNELS 3 Xrotation Yrotation Zrotation
							}
						}
					}
				}
			}
		}
	}
}
MOTION
Frames: 8
Frame Time: 0.066664
 -61.6210 32.7790 -2.4755 83.2267 74.1781 -85.0027 -31.3426 7.1179 3.8894 28.9381 0.0000 0.0000 -2.5528 8.9443 -18.0731 10.8403 0.0000 -0.0000 -12.2454 3.4015 4.5095 16.8382 -0.0000 0.0000 -10.0197 -19.6842 21.8240 19.5196 -0.0000 0.0000 -7.6458 6.2391 -10.1942 10.2948 -2.0962 9.2588 -27.0021 13.0186 -3.2668 -4.1459 -39.1893 -1.6735 13.0010 20.6021 5.2901 -4.9095 -28.4710 -65.8918 -0.0001 -27.0584 -0.0000 -2.5141 -14.8262 -1.6794 -0.0000 0.0000 -0.0000 -0.0000 0.0000 -0.0000 13.0659 -6.6247 -0.2104 -24.0087 42.5564 51.6310 -0.0001 14.1327 0.0000 2.3279 -7.3052 9.2150 -0.0000 0.0000 -0.0000 -0.0000 0.0000 -0.0000
 -63.9231 32.3157 -2.5400 101.1400 74.2985 -99.8760 -32.2479 10.7810 -0.3644 24.0221 -0.0000 0.0000 -2.0278 6.8008 -18.0585 10.6291 -0.0000 -0.0000 -8.9373 -4.9953 1.3889 30.5625 -0.0000 0.0000 -6.8563 -14.1276 25.1674 19.5196 -0.0000 -0.0000 -7.4519 7.4651 -10.1073 9.8612 -1.7579 4.7990 -26.7042 8.4093 -5.0932 -2.0257 -40.4508 -0.8335 14.2369 21.8730 4.9252 1.3385 -24.1072 -64.5084 -0.0001 -23.9337 -0.0000 0.4584 -16.8841 5.5932 -0.0000 0.0000 -0.0000 -0.0000 0.0000 -0.0000 12.3578 -5.5466 -2.4157 -29.1739 42.3979 50.9604 -0.0001 15.7535 0.0000 0.7591 -6.3219 5.3669 -0.0000 0.0000 -0.0000 -0.0000 0.0000 -0.0000
 -66.5499 31.8259 -2.4720 117.5275 73.0991 -114.3743 -35.0805 7.5361 -4.4445 20.9228 -0.0000 0.0000 2.4477 8.4531 -18.9661 10.9645 -0.0000 0.0000 -7.7404 -10.6145 -0.5378 36.7985 0.0000 0.0000 0.2621 -8.1033 29.0264 15.4643 0.0000 0.0000 -7.8713 8.9144 -9.8117 11.1952 -1.0643 1.5865 -25.8828 4.8949 -5.2846 -0.9303 -42.9322 -1.8046 15.2863 23.2808 3.7311 4.7603 -23.2119 -62.8262 -0.0001 -21.9643 -0.0000 3.2409 -17.6233 8.0160 -0.0000 -0.0000 0.0000 -0.0000 -0.0000 0.0000 12.1820 -5.1773 -3.3914 -35.8903 40.4985 50.9528 -0.0001 17.5770 0.0000 0.6809 -4.4190 1.2837 -0.0000 0.0000 -0.0000 -0.0000 0.0000 -0.0000
 -69.3788 31.6528 -2.1445 123.9670 73.5612 -120.9320 -34.5720 6.5142 -5.2271 12.6154 -0.0000 0.0000 5.2456 13.5405 -14.1717 14.4262 0.0000 0.0000 -8.9176 -9.5309 0.7118 35.1208 -0.0000 0.0000 -9.4050 -10.6544 27.2852 19.5196 0.0000 0.0000 -7.7129 10.2929 -9.2974 12.9375 0.1229 0.7560 -23.9115 1.3796 -6.8112 0.9412 -42.9056 0.5745 16.1837 23.8017 1.7074 4.4880 -24.2842 -63.0611 -0.0001 -19.6653 -0.0000 4.6004 -17.5926 7.1050 -0.0000 0.0000 -0.0000 -0.0000 0.0000 -0.0000 11.7179 -4.2185 -5.6915 -42.9661 37.6002 55.9568 -0.0001 19.4301 0.0000 0.0121 -2.0214 -3.0551 -0.0000 0.0000 -0.0000 -0.0000 0.0000 -0.0000
 -71.9917 31.5718 -1.7657 128.1235 74.1022 -125.2576 -31.9724 7.9055 -4.4574 6.5838 0.0000 0.0000 11.7341 16.5832 -8.1478 19.2989 -0.0000 0.0000 -11.5200 -12.6341 1.9453 34.5188 -0.0000 0.0000 -17.5978 -14.3535 19.5801 17.5163 0.0000 -0.0000 -7.5417 10.3309 -9.0586 13.6915 -0.0915 -0.1893 -23.0742 -0.5316 -8.3433 4.3413 -41.7902 4.5834 17.0673 23.2520 -0.0210 1.2833 -26.5099 -64.5090 -0.0001 -18.5436 -0.0000 5.0226 -18.4970 7.2136 -0.0000 0.0000 -0.0000 -0.0000 0.0000 -0.0000 11.0079 -3.5043 -6.6681 -45.6572 37.0345 62.3210 -0.0001 24.6775 0.0000 1.9465 -2.8294 -1.7170 -0.0000 0.0000 -0.0000 -0.0000 0.0000 -0.0000
 -74.4433 31.6973 -1.5306 132.4421 72.7953 -128.2127 -31.6771 5.0426 -4.3403 9.4103 -0.0000 0.0000 10.9138 16.1109 -8.3048 16.3734 -0.0000 0.0000 -15.6611 -10.7066 0.7853 33.1290 -0.0000 0.0000 -20.5814 -16.6746 19.9636 19.5196 -0.0000 0.0000 -8.0512 9.8507 -9.2435 14.5299 -1.2968 -2.3759 -23.8537 -1.2359 -9.1684 7.0737 -41.8457 6.8696 17.1496 20.8135 -1.3324 -5.7278 -33.0175 -65.4306 -0.0001 -16.7621 -0.0000 6.6884 -18.7618 8.4455 -0.0000 0.0000 -0.0000 -0.0000 0.0000 -0.0000 12.4026 -4.7307 -5.1977 -43.7688 38.6914 65.9035 -0.0002 35.5408 0.0000 4.8917 -3.7018 -1.9999 -0.0000 0.0000 -0.0000 -0.0000 0.0000 -0.0000
 -76.7518 31.9120 -1.4855 140.8666 70.2512 -135.6798 -30.7784 0.8441 -5.0932 13.8665 -0.0000 0.0000 6.0679 17.4813 -6.1973 13.5251 0.0000 0.0000 -18.2959 -12.1830 -1.0935 29.8461 -0.0000 0.0000 -21.7974 -18.1283 19.3712 19.2432 0.0000 0.0000 -7.7282 8.0754 -9.0399 13.8617 -3.2846 -3.1240 -25.1616 -0.0680 -9.0957 9.6080 -42.4070 6.1815 15.7864 17.4058 -1.3909 -15.6122 -38.6830 -68.8250 -0.0001 -16.9093 -0.0000 7.6231 -19.2134 8.3518 -0.0000 0.0000 -0.0000 -0.0000 0.0000 -0.0000 13.2966 -7.0187 -4.4807 -36.1861 41.6454 67.1246 -0.0002 44.9558 0.0001 7.4960 -3.4713 -3.2164 -0.0000 0.0000 -0.0000 -0.0000 0.0000 -0.0000
 -79.0708 32.0787 -1.5396 140.7031 69.5901 -134.6915 -27.9037 3.6897 -4.7977 12.3638 0.0000 0.0000 4.8861 13.7153 -10.2939 13.7819 0.0000 0.0000 -22.6381 -10.7908 -2.6861 28.7547 0.0000 0.0000 -21.1231 -19.4383 17.9028 19.5196 -0.0000 0.0000 -7.8834 7.0240 -9.0311 13.0686 -4.3477 -3.0556 -25.3867 1.2857 -8.6336 8.6686 -42.2506 4.9499 14.2197 14.4058 -1.6350 -27.2211 -43.9621 -72.8733 -0.0001 -18.5912 -0.0000 7.2311 -19.6072 7.5504 -0.0000 0.0000 -0.0000 -0.0000 0.0000 -0.0000 14.7939 -9.5732 -3.3446 -27.6513 45.1779 65.5700 -0.0003 50.1289 0.0001 11.1334 -3.3938 -6.2900 -0.0000 0.0000 -0.0000 -0.0000 0.0000 -0.0000
